<?xml version="1.0" encoding="iso-8859-1"?>
<!-- Generator: Adobe Illustrator 19.0.0, SVG Export Plug-In . SVG Version: 6.00 Build 0)  -->
<svg version="1.1" id="Capa_1" xmlns="http://www.w3.org/2000/svg" xmlns:xlink="http://www.w3.org/1999/xlink" x="0px" y="0px"
	 viewBox="0 0 512 512" style="enable-background:new 0 0 512 512;" xml:space="preserve">
<path style="fill:#EFEFEF;" d="M301,442c0,33.137-26.863,60-60,60H81c-33.137,0-60-26.863-60-60V70c0-33.137,26.863-60,60-60h160
	c33.137,0,60,26.863,60,60V442z"/>
<path style="fill:#51CEEF;" d="M221,56.667c22.091,0,40,17.909,40,40l0,0c0,22.091-17.909,40-40,40H101c-22.091,0-40-17.909-40-40
	l0,0c0-22.091,17.909-40,40-40L221,56.667z"/>
<polygon style="fill:#3BBF9A;" points="362.913,122.394 343.285,31 385.215,68 425.726,37.819 418.907,91.667 491,72 
	407.496,140.478 "/>
<path style="fill:#EF4B30;" d="M292.64,461.856c47.715-89.716,102.542-181.127,125.66-279.548
	c0.632,0.149,6.218-39.718-34.203-52.457c-40.773-12.875-49.945-9.913-67.376,21.778c-4.148,7.98-10.854,30.301-14.115,60.918
	c-3.639,30.475-3.833,69.246-3.704,106.842c0.142,37.606,0.614,74.04-1.345,100.107C296.007,445.728,292.023,461.593,292.64,461.856
	z"/>
<path d="M221,46.667H101c-27.57,0-50,22.43-50,50s22.43,50,50,50h120c27.57,0,50-22.43,50-50S248.57,46.667,221,46.667z
	 M221,126.667H101c-16.542,0-30-13.458-30-30s13.458-30,30-30h120c16.542,0,30,13.458,30,30S237.542,126.667,221,126.667z"/>
<path d="M101,81.667c-5.522,0-10,4.478-10,10v10c0,5.522,4.478,10,10,10s10-4.478,10-10v-10C111,86.145,106.522,81.667,101,81.667z"
	/>
<path d="M141,81.667c-5.522,0-10,4.478-10,10v10c0,5.522,4.478,10,10,10s10-4.478,10-10v-10C151,86.145,146.522,81.667,141,81.667z"
	/>
<path d="M181,81.667c-5.522,0-10,4.478-10,10v10c0,5.522,4.478,10,10,10s10-4.478,10-10v-10C191,86.145,186.522,81.667,181,81.667z"
	/>
<path d="M221,81.667c-5.522,0-10,4.478-10,10v10c0,5.522,4.478,10,10,10s10-4.478,10-10v-10C231,86.145,226.522,81.667,221,81.667z"
	/>
<path d="M101,166.667H61c-5.522,0-10,4.478-10,10v40c0,5.522,4.478,10,10,10h40c5.522,0,10-4.478,10-10v-40
	C111,171.145,106.522,166.667,101,166.667z M91,206.667H71v-20h20V206.667z"/>
<path d="M141,226.667h40c5.522,0,10-4.478,10-10v-40c0-5.522-4.478-10-10-10h-40c-5.522,0-10,4.478-10,10v40
	C131,222.189,135.477,226.667,141,226.667z M151,186.667h20v20h-20V186.667z"/>
<path d="M261,166.667h-40c-5.522,0-10,4.478-10,10v40c0,5.522,4.478,10,10,10h40c5.522,0,10-4.478,10-10v-40
	C271,171.145,266.522,166.667,261,166.667z M251,206.667h-20v-20h20V206.667z"/>
<path d="M101,246.667H61c-5.522,0-10,4.478-10,10v40c0,5.522,4.478,10,10,10h40c5.522,0,10-4.478,10-10v-40
	C111,251.145,106.522,246.667,101,246.667z M91,286.667H71v-20h20V286.667z"/>
<path d="M131,296.667c0,5.522,4.478,10,10,10h40c5.522,0,10-4.478,10-10v-40c0-5.522-4.478-10-10-10h-40c-5.522,0-10,4.478-10,10
	V296.667z M151,266.667h20v20h-20V266.667z"/>
<path d="M261,246.667h-40c-5.522,0-10,4.478-10,10v40c0,5.522,4.478,10,10,10h40c5.522,0,10-4.478,10-10v-40
	C271,251.145,266.522,246.667,261,246.667z M251,286.667h-20v-20h20V286.667z"/>
<path d="M101,326.667H61c-5.522,0-10,4.478-10,10v40c0,5.522,4.478,10,10,10h40c5.522,0,10-4.478,10-10v-40
	C111,331.145,106.522,326.667,101,326.667z M91,366.667H71v-20h20V366.667z"/>
<path d="M131,376.667c0,5.522,4.478,10,10,10h40c5.522,0,10-4.478,10-10v-40c0-5.522-4.478-10-10-10h-40c-5.522,0-10,4.478-10,10
	V376.667z M151,346.667h20v20h-20V346.667z"/>
<path d="M261,326.667h-40c-5.522,0-10,4.478-10,10v40c0,5.522,4.478,10,10,10h40c5.522,0,10-4.478,10-10v-40
	C271,331.145,266.522,326.667,261,326.667z M251,366.667h-20v-20h20V366.667z"/>
<path d="M101,406.667H61c-5.522,0-10,4.478-10,10v40c0,5.522,4.478,10,10,10h40c5.522,0,10-4.478,10-10v-40
	C111,411.145,106.522,406.667,101,406.667z M91,446.667H71v-20h20V446.667z"/>
<path d="M261,406.667H141c-5.522,0-10,4.478-10,10v40c0,5.522,4.478,10,10,10h120c5.522,0,10-4.478,10-10v-40
	C271,411.145,266.522,406.667,261,406.667z M251,446.667H151v-20h100V446.667z"/>
<path d="M499.886,67.412c-2.164-4.191-6.966-6.299-11.518-5.06l-57.661,15.729l4.94-39.006c0.504-3.979-1.418-7.873-4.881-9.894
	c-3.464-2.021-7.798-1.778-11.015,0.617l-34.004,25.333L349.9,23.5c-3.238-2.858-7.943-3.313-11.669-1.132
	c-3.726,2.182-5.631,6.508-4.725,10.729l17.097,79.609c-19.954,0.094-30.273,12.616-39.605,28.704V70c0-38.598-31.402-70-70-70H81
	C42.402,0,11,31.402,11,70v372c0,38.598,31.402,70,70,70h160c36.053,0,65.82-27.401,69.589-62.47
	c4.159-7.72,8.338-15.435,12.44-23.002c41.712-76.943,84.843-156.51,104.888-241.427c0.233-0.718,0.423-1.508,0.557-2.376
	c0.22-1.43,1.981-14.389-3.828-29.027c-1.249-3.147-2.943-6.582-5.239-10.056l77.934-63.91
	C500.989,76.74,502.05,71.605,499.886,67.412z M291,442c0,27.57-22.43,50-50,50H81c-27.57,0-50-22.43-50-50V70
	c0-27.57,22.43-50,50-50h160c27.57,0,50,22.43,50,50V442z M402.094,204.564l-16.402-5.194c-0.98-0.311-2-0.471-3.021-0.471
	c-4.38,0-8.21,2.811-9.529,6.99c-0.811,2.54-0.57,5.25,0.659,7.62c1.23,2.37,3.311,4.12,5.86,4.93l16.503,5.22
	c-8.333,25.183-18.485,50.005-29.709,74.511l-23.334-7.387c-5.269-1.663-10.885,1.251-12.552,6.517
	c-1.667,5.265,1.25,10.885,6.515,12.551l20.796,6.584c-14.704,30.561-30.815,60.638-46.882,90.313V343.55l3.767,1.192
	c1.004,0.317,2.021,0.469,3.021,0.469c4.244,0,8.182-2.724,9.531-6.985c1.666-5.266-1.251-10.885-6.517-12.552l-9.8-3.103V238.66
	l43.593,13.799c1.004,0.317,2.021,0.469,3.021,0.469c4.244,0,8.182-2.724,9.531-6.985c1.666-5.265-1.251-10.885-6.517-12.552
	l-48.571-15.375c0.153-1.445,0.311-2.876,0.479-4.283c0.005-0.042,0.01-0.084,0.014-0.126c2.798-26.262,8.255-46,11.803-54.633
	l19.711,6.239c1.004,0.317,2.021,0.469,3.021,0.469c4.244,0,8.182-2.724,9.531-6.985c1.666-5.265-1.251-10.885-6.517-12.552
	l-15.14-4.793c5.499-7.044,9.823-8.648,15.87-8.648c6.374,0,15.423,1.999,30.264,6.685c16.449,5.185,23.267,15.771,26.019,24.804
	l-18.877-5.976c-5.262-1.663-10.884,1.251-12.552,6.517c-1.666,5.265,1.251,10.885,6.517,12.552l24.787,7.847
	c0.105,0.033,0.21,0.057,0.315,0.086C405.701,191.691,403.961,198.139,402.094,204.564z M405.424,129.245
	c-4.952-3.514-10.975-6.616-18.315-8.929c-5.503-1.738-10.605-3.253-15.373-4.465l-12.297-57.259L378.6,75.499
	c3.545,3.129,8.799,3.345,12.591,0.521l21.662-16.139l-3.866,30.529c-0.419,3.313,0.842,6.616,3.363,8.807
	c2.52,2.188,5.966,2.974,9.189,2.098l26.889-7.335L405.424,129.245z"/>
<path d="M347.562,187.3c-0.99-0.31-2-0.47-3.03-0.47c-4.37,0-8.2,2.81-9.521,6.979c-1.67,5.26,1.261,10.891,6.511,12.55
	c0.979,0.32,2,0.471,3.02,0.471c4.38,0,8.21-2.8,9.53-6.98c0.81-2.55,0.58-5.26-0.65-7.63
	C352.182,189.85,350.102,188.1,347.562,187.3z"/>
<g>
</g>
<g>
</g>
<g>
</g>
<g>
</g>
<g>
</g>
<g>
</g>
<g>
</g>
<g>
</g>
<g>
</g>
<g>
</g>
<g>
</g>
<g>
</g>
<g>
</g>
<g>
</g>
<g>
</g>
</svg>
