<svg height="496pt" viewBox="-64 0 496 496" width="496pt" xmlns="http://www.w3.org/2000/svg"><g fill="#999"><path d="m304 120c0 8.835938-7.164062 16-16 16s-16-7.164062-16-16 7.164062-16 16-16 16 7.164062 16 16zm0 0"/><path d="m360 40c0 17.671875-14.328125 32-32 32s-32-14.328125-32-32 14.328125-32 32-32 32 14.328125 32 32zm0 0"/><path d="m72 40c0 17.671875-14.328125 32-32 32s-32-14.328125-32-32 14.328125-32 32-32 32 14.328125 32 32zm0 0"/><path d="m96 120c0 8.835938-7.164062 16-16 16s-16-7.164062-16-16 7.164062-16 16-16 16 7.164062 16 16zm0 0"/></g><path d="m248 424h-128l16-32h96zm0 0" fill="#7e4e4d"/><path d="m152 328-48 160h-48l72-168" fill="#8d5655"/><path d="m216 328 48 160h48l-72-168" fill="#8d5655"/><path d="m344 168c0 88.367188-71.632812 160-160 160s-160-71.632812-160-160zm0 0" fill="#999"/><path d="m172 327.390625c82.742188-6.152344 148-75.078125 148-159.390625h-296c0 84.3125 65.257812 153.238281 148 159.390625zm0 0" fill="#bab8b9"/><path d="m340.785156 200c2.101563-10.34375 3.214844-21.039062 3.214844-32h-320c0 10.960938 1.113281 21.65625 3.214844 32zm0 0" fill="#bc8f6f"/><path d="m120 314.601562c19.609375 8.566407 41.230469 13.398438 64 13.398438s44.390625-4.832031 64-13.398438v-66.601562h-128zm0 0" fill="#bf4653"/><path d="m120 314.601562c19.609375 8.566407 41.230469 13.398438 64 13.398438s44.390625-4.832031 64-13.398438v-42.601562h-128zm0 0" fill="#df9363"/><path d="m184 336c-92.632812 0-168-75.367188-168-168 0-4.425781 3.574219-8 8-8h320c4.425781 0 8 3.574219 8 8 0 92.632812-75.367188 168-168 168zm-151.792969-160c4.175781 80.113281 70.664063 144 151.792969 144s147.617188-63.886719 151.792969-144zm0 0"/><path d="m256 312h-16v-56h-112v56h-16v-64c0-4.425781 3.574219-8 8-8h128c4.425781 0 8 3.574219 8 8zm0 0"/><path d="m144 272h16v16h-16zm0 0"/><path d="m176 288h16v16h-16zm0 0"/><path d="m208 272h16v16h-16zm0 0"/><path d="m104 496h-48c-2.6875 0-5.191406-1.351562-6.679688-3.59375-1.480468-2.246094-1.734374-5.085938-.671874-7.550781l72-168 14.703124 6.296875-67.214843 156.847656h29.910156l46.289063-154.296875 15.328124 4.59375-48 160c-1.015624 3.382813-4.136718 5.703125-7.664062 5.703125zm0 0"/><path d="m312 496h-48c-3.527344 0-6.648438-2.320312-7.664062-5.703125l-48-160 15.328124-4.59375 46.289063 154.296875h29.910156l-67.214843-156.847656 14.703124-6.296875 72 168c1.0625 2.472656.808594 5.304687-.671874 7.550781-1.488282 2.242188-3.992188 3.59375-6.679688 3.59375zm0 0"/><path d="m136 384h96v16h-96zm0 0"/><path d="m120 416h128v16h-128zm0 0"/><path d="m24 192h320v16h-320zm0 0"/><path d="m149.65625 133.65625-11.3125-11.3125 15.511719-15.511719c3.90625-3.910156 6.144531-9.3125 6.144531-14.832031s-2.238281-10.921875-6.144531-14.832031l-7.03125-7.03125c-6.878907-6.878907-10.824219-16.402344-10.824219-26.136719s3.945312-19.257812 10.832031-26.144531l15.511719-15.511719 11.3125 11.3125-15.511719 15.511719c-3.90625 3.910156-6.144531 9.3125-6.144531 14.832031s2.238281 10.921875 6.144531 14.832031l7.03125 7.03125c6.878907 6.878907 10.824219 16.402344 10.824219 26.136719s-3.945312 19.257812-10.832031 26.144531zm0 0"/><path d="m205.65625 133.65625-11.3125-11.3125 15.511719-15.511719c3.90625-3.910156 6.144531-9.3125 6.144531-14.832031s-2.238281-10.921875-6.144531-14.832031l-7.03125-7.03125c-6.878907-6.878907-10.824219-16.402344-10.824219-26.136719s3.945312-19.257812 10.832031-26.144531l15.511719-15.511719 11.3125 11.3125-15.511719 15.511719c-3.90625 3.910156-6.144531 9.3125-6.144531 14.832031s2.238281 10.921875 6.144531 14.832031l7.03125 7.03125c6.878907 6.878907 10.824219 16.402344 10.824219 26.136719s-3.945312 19.257812-10.832031 26.144531zm0 0"/><path d="m288 144c-13.230469 0-24-10.769531-24-24s10.769531-24 24-24 24 10.769531 24 24-10.769531 24-24 24zm0-32c-4.414062 0-8 3.585938-8 8s3.585938 8 8 8 8-3.585938 8-8-3.585938-8-8-8zm0 0"/><path d="m328 80c-22.054688 0-40-17.945312-40-40s17.945312-40 40-40 40 17.945312 40 40-17.945312 40-40 40zm0-64c-13.230469 0-24 10.769531-24 24s10.769531 24 24 24 24-10.769531 24-24-10.769531-24-24-24zm0 0"/><path d="m80 144c-13.230469 0-24-10.769531-24-24s10.769531-24 24-24 24 10.769531 24 24-10.769531 24-24 24zm0-32c-4.414062 0-8 3.585938-8 8s3.585938 8 8 8 8-3.585938 8-8-3.585938-8-8-8zm0 0"/><path d="m40 80c-22.054688 0-40-17.945312-40-40s17.945312-40 40-40 40 17.945312 40 40-17.945312 40-40 40zm0-64c-13.230469 0-24 10.769531-24 24s10.769531 24 24 24 24-10.769531 24-24-10.769531-24-24-24zm0 0"/></svg>